{
  "accessors": [
    {
      "bufferView": 0,
      "componentType": 5126,
      "count": 343386,
      "max": [
        26.796281814575195,
        26.797231674194336,
        0
      ],
      "min": [
        -26.797548294067383,
        -26.797231674194336,
        -19
      ],
      "type": "VEC3"
    },
    {
      "bufferView": 1,
      "componentType": 5126,
      "count": 343386,
      "type": "VEC3"
    },
    {
      "bufferView": 2,
      "componentType": 5125,
      "count": 343386,
      "type": "SCALAR"
    }
  ],
  "asset": {
    "generator": "Luxion KeyShot",
    "version": "2.0"
  },
  "bufferViews": [
    {
      "buffer": 0,
      "byteLength": 4120632,
      "byteOffset": 0,
      "byteStride": 12
    },
    {
      "buffer": 0,
      "byteLength": 4120632,
      "byteOffset": 4120632,
      "byteStride": 12
    },
    {
      "buffer": 0,
      "byteLength": 1373544,
      "byteOffset": 8241264
    }
  ],
  "buffers": [
    {
      "uri": "1_data.bin",
      "byteLength": 9614808
    }
  ],
  "cameras": [
    {
      "name": "active",
      "perspective": {
        "aspectRatio": 1,
        "yfov": 0.6911154697478635,
        "zfar": 185.07379150390625,
        "znear": 109.64617156982422
      },
      "type": "perspective"
    }
  ],
  "materials": [
    {
      "doubleSided": true,
      "pbrMetallicRoughness": {
        "baseColorFactor": [
          0.5,
          0.5,
          0.5,
          1
        ],
        "metallicFactor": 0,
        "roughnessFactor": 1
      }
    }
  ],
  "meshes": [
    {
      "name": "mesh-mesh",
      "primitives": [
        {
          "attributes": {
            "NORMAL": 1,
            "POSITION": 0
          },
          "indices": 2,
          "material": 0,
          "mode": 4
        }
      ]
    }
  ],
  "nodes": [
    {
      "camera": 0,
      "matrix": [
        0.3822603459205478,
        -1.8927154066261664e-7,
        0.9240546902005189,
        0,
        -0.4388806896694677,
        0.8800122354259852,
        0.18155510987749618,
        0,
        -0.8131794333457947,
        -0.4749510586261749,
        0.33639368414878845,
        0,
        -122.55432891845703,
        -41.75263977050781,
        45.01716995239258,
        1
      ],
      "name": "active"
    },
    {
      "mesh": 0,
      "name": "mesh"
    },
    {
      "children": [
        1
      ],
      "matrix": [
        1,
        0,
        0,
        0,
        0,
        1,
        0,
        0,
        0,
        0,
        1,
        0,
        0.00063323974609375,
        26.797231674194336,
        9.5,
        1
      ],
      "name": "Mesh1"
    },
    {
      "children": [
        2
      ],
      "matrix": [
        0.0010000000474974513,
        0,
        0,
        0,
        0,
        0.0010000000474974513,
        0,
        0,
        0,
        0,
        0.0010000000474974513,
        0,
        0,
        0,
        0,
        1
      ],
      "name": "Default"
    }
  ],
  "scenes": [
    {
      "nodes": [
        0,
        3
      ]
    }
  ]
}